<svg xmlns="http://www.w3.org/2000/svg" viewBox="0 0 512 512">
  <!-- Sound block -->
  <ellipse cx="200" cy="420" rx="120" ry="24" fill="#6B3F1F"/>
  <path d="M80 400 Q200 350 320 400 L320 420 Q200 370 80 420 Z" fill="#8B5E3C"/>
  <path d="M90 410 Q200 365 310 410 L310 425 Q200 380 90 425 Z" fill="#6B3F1F"/>

  <!-- Handle -->
  <line x1="195" y1="245" x2="400" y2="95" stroke="#8B5E3C" stroke-width="28" stroke-linecap="round"/>
  <line x1="195" y1="245" x2="400" y2="95" stroke="#9B6B42" stroke-width="22" stroke-linecap="round"/>

  <!-- Gold ball at handle end -->
  <circle cx="415" cy="82" r="28" fill="#F0A830"/>
  <circle cx="407" cy="74" r="10" fill="#FFD060" opacity="0.6"/>

  <!-- Gavel head (rotated rectangle) -->
  <g transform="rotate(-35 155 200)">
    <rect x="60" y="170" width="190" height="70" rx="16" fill="#7A4A28"/>
    <rect x="62" y="172" width="186" height="66" rx="14" fill="#8B5E3C"/>
    <!-- Gold bands -->
    <rect x="72" y="170" width="14" height="70" rx="2" fill="#F0A830"/>
    <rect x="90" y="170" width="8" height="70" rx="1" fill="#E8A020"/>
    <rect x="224" y="170" width="14" height="70" rx="2" fill="#F0A830"/>
    <rect x="212" y="170" width="8" height="70" rx="1" fill="#E8A020"/>
  </g>
</svg>